Coordinates
version=1
nRows=9
nColumns=63
inDegrees=yes

Units are S.I. units (second, meters, Newtons, ...)
If the header above contains a line with 'inDegrees', this indicates whether rotational values are in degrees (yes) or radians (no).

endheader
time	pelvis_tilt	pelvis_list	pelvis_rotation	pelvis_tx	pelvis_ty	pelvis_tz	hip_flexion_r	hip_adduction_r	hip_rotation_r	knee_angle_r	knee_angle_r_beta	ankle_angle_r	subtalar_angle_r	mtp_angle_r	hip_flexion_l	hip_adduction_l	hip_rotation_l	knee_angle_l	knee_angle_l_beta	ankle_angle_l	subtalar_angle_l	mtp_angle_l	L5_S1_Flex_Ext	L5_S1_Lat_Bending	L5_S1_axial_rotation	L4_L5_Flex_Ext	L4_L5_Lat_Bending	L4_L5_axial_rotation	L3_L4_Flex_Ext	L3_L4_Lat_Bending	L3_L4_axial_rotation	L2_L3_Flex_Ext	L2_L3_Lat_Bending	L2_L3_axial_rotation	L1_L2_Flex_Ext	L1_L2_Lat_Bending	L1_L2_axial_rotation	L1_T12_Flex_Ext	L1_T12_Lat_Bending	L1_T12_axial_rotation	Abs_r3	Abs_r2	Abs_r1	Abs_t1	Abs_t2	neck_flexion	neck_bending	neck_rotation	arm_flex_r	arm_add_r	arm_rot_r	elbow_flex_r	pro_sup_r	wrist_flex_r	wrist_dev_r	arm_flex_l	arm_add_l	arm_rot_l	elbow_flex_l	pro_sup_l	wrist_flex_l	wrist_dev_l
2.881356	-1.411985	4.742534	93.488192	0.252512	0.885157	0.683309	-9.240916	2.658252	3.538989	4.436946	0.077439	29.246325	-7.214003	0.000000	-4.199631	-1.945154	0.099574	10.751211	0.187644	36.652740	4.931662	0.000000	-0.364770	1.253724	2.002043	-0.677414	1.667452	2.127171	-0.599280	3.048303	2.127171	-0.416895	3.048303	1.751788	-0.338725	2.556593	1.626660	-0.208429	1.942018	1.501532	-2.605513	14.182372	11.134763	0.000000	0.000000	19.334712	1.406217	44.660182	6.760258	-20.516456	112.408282	14.099507	4.912700	2.140575	-1.369737	6.653331	-14.462437	22.181270	131.523305	85.033718	28.896110	-0.839569
2.898305	-1.390622	4.914732	93.618634	0.252308	0.885759	0.684360	-9.317426	2.698429	3.171670	4.533012	0.079116	29.271942	-6.904868	0.000000	-4.265649	-2.009154	-0.038279	10.834679	0.189101	36.671923	5.197466	0.000000	-0.384528	1.266296	2.019088	-0.714108	1.684174	2.145281	-0.631742	3.078873	2.145281	-0.439478	3.078873	1.766702	-0.357073	2.582231	1.640509	-0.219720	1.961493	1.514316	-2.746648	14.324597	11.229562	0.000000	0.000000	18.798759	1.306625	44.647990	6.761281	-20.599861	112.478742	14.044916	4.815559	2.138957	-1.310391	6.829060	-14.186163	22.207601	131.046236	85.324465	28.354113	-2.096771
2.915254	-1.358885	5.058787	93.790763	0.252070	0.886316	0.685494	-9.357565	2.752852	2.753880	4.617222	0.080586	29.311589	-6.535892	0.000000	-4.262264	-2.094679	-0.226460	10.959005	0.191271	36.761712	5.580875	0.000000	-0.404432	1.278212	2.029693	-0.751070	1.700022	2.156549	-0.664441	3.107845	2.156549	-0.462225	3.107845	1.775981	-0.375555	2.606530	1.649126	-0.231092	1.979951	1.522270	-2.888817	14.459392	11.288544	0.000000	0.000000	18.236833	1.237550	44.634682	6.801130	-20.666948	112.685753	13.969686	4.723194	2.124533	-1.335382	7.083307	-13.922436	22.227695	130.597604	85.653384	27.926840	-3.263322
2.932203	-1.333163	5.177958	94.011660	0.251820	0.886814	0.686601	-9.397253	2.817140	2.568459	4.646315	0.081094	29.273183	-6.498236	0.000000	-4.208334	-2.184348	-0.428826	11.109680	0.193900	36.909168	6.078700	0.000000	-0.423450	1.286689	2.030373	-0.786389	1.711296	2.157272	-0.695686	3.128455	2.157272	-0.483961	3.128455	1.776577	-0.393215	2.623816	1.649678	-0.241959	1.993081	1.522780	-3.024659	14.555281	11.292327	0.000000	0.000000	17.643885	1.219959	44.621097	6.866945	-20.694813	113.002702	13.860917	4.652003	2.091543	-1.432435	7.422075	-13.711769	22.235020	130.216288	85.954037	27.723291	-4.202687
2.949153	-1.316153	5.266381	94.256553	0.251610	0.887227	0.687623	-9.421852	2.879902	2.469816	4.645604	0.081081	29.220160	-6.572832	0.000000	-4.108463	-2.275179	-0.665122	11.283071	0.196927	37.118313	6.705412	0.000000	-0.440203	1.290552	2.025559	-0.817502	1.716435	2.152157	-0.723210	3.137849	2.152157	-0.503108	3.137849	1.772365	-0.408773	2.631694	1.645767	-0.251532	1.999066	1.519170	-3.144329	14.598987	11.265554	0.000000	0.000000	17.052631	1.266458	44.608345	6.960364	-20.672978	113.497806	13.714695	4.579422	2.052837	-1.610818	7.839573	-13.570282	22.245796	129.928575	86.224241	27.724028	-4.891092
2.966102	-1.318097	5.319908	94.523483	0.251452	0.887533	0.688514	-9.418765	2.924485	2.269012	4.643571	0.081046	29.228376	-6.507889	0.000000	-3.967043	-2.351614	-0.886483	11.471372	0.200213	37.370770	7.402794	0.000000	-0.453658	1.288096	2.014616	-0.842488	1.713168	2.140529	-0.745315	3.131877	2.140529	-0.518486	3.131877	1.762789	-0.421267	2.626686	1.636875	-0.259220	1.995261	1.510962	-3.240433	14.571201	11.204688	0.000000	0.000000	16.496117	1.381774	44.596763	7.063138	-20.609036	113.917427	13.563534	4.627606	1.992834	-1.801837	8.319251	-13.505569	22.248789	129.780258	86.412533	27.922894	-5.209073
2.983051	-1.340361	5.344542	94.804090	0.251359	0.887744	0.689228	-9.423967	2.958497	2.259118	4.589345	0.080099	29.178010	-6.706360	0.000000	-3.806562	-2.396445	-0.956226	11.646964	0.203278	37.616549	7.970364	0.000000	-0.463940	1.279190	1.998669	-0.861583	1.701323	2.123586	-0.762207	3.110222	2.123586	-0.530237	3.110222	1.748835	-0.430815	2.608524	1.623918	-0.265095	1.981465	1.499002	-3.313879	14.470453	11.115997	0.000000	0.000000	16.000318	1.569206	44.586411	7.193653	-20.480143	114.603644	13.368224	4.620985	1.944212	-2.072328	8.853282	-13.530668	22.259026	129.764884	86.582976	28.294329	-5.318422
3.000000	-1.390810	5.328228	95.099473	0.251314	0.887853	0.689771	-9.415594	2.968490	2.355809	4.505738	0.078640	29.099307	-7.074999	0.000000	-3.608600	-2.407921	-0.957788	11.821203	0.206319	37.870591	8.513869	0.000000	-0.469479	1.263355	1.974608	-0.871869	1.680262	2.098021	-0.771307	3.071722	2.098021	-0.536567	3.071722	1.727782	-0.435958	2.576234	1.604369	-0.268260	1.956937	1.480956	-3.353441	14.291326	10.982175	0.000000	0.000000	15.625872	1.805953	44.577800	7.345990	-20.301676	115.349624	13.155389	4.655419	1.908420	-2.363672	9.399554	-13.637896	22.254153	129.903811	86.716689	28.782935	-5.191539
3.016949	-1.473337	5.259916	95.389432	0.251324	0.887873	0.690151	-9.366411	2.941736	2.469138	4.423044	0.077197	29.034786	-7.466215	0.000000	-3.369065	-2.380761	-0.941480	11.975296	0.209008	38.130023	9.068839	0.000000	-0.468380	1.240797	1.940765	-0.869829	1.650260	2.062063	-0.769502	3.016873	2.062063	-0.535312	3.016873	1.698169	-0.434938	2.530233	1.576871	-0.267633	1.921994	1.455574	-3.345594	14.036142	10.793952	0.000000	0.000000	15.390394	2.074261	44.571485	7.530445	-20.071189	116.195713	12.916180	4.644502	1.925402	-2.642518	9.902623	-13.818155	22.199696	130.199787	86.836423	29.328931	-4.861039
